<svg width="14" height="14" viewBox="0 0 14 14" fill="none" xmlns="http://www.w3.org/2000/svg">
<path d="M13.6563 6.32133H3.04292L9.39537 0.892761C9.49695 0.805261 9.43527 0.642761 9.30104 0.642761H7.6957C7.62495 0.642761 7.55784 0.667761 7.50523 0.712404L0.650329 6.56776C0.587546 6.62134 0.537194 6.68757 0.502686 6.76197C0.468177 6.83638 0.450317 6.91722 0.450317 6.99901C0.450317 7.08081 0.468177 7.16164 0.502686 7.23605C0.537194 7.31045 0.587546 7.37669 0.650329 7.43026L7.54514 13.3213C7.57235 13.3445 7.605 13.357 7.63947 13.357H9.29923C9.43346 13.357 9.49513 13.1928 9.39355 13.107L3.04292 7.67848H13.6563C13.7361 7.67848 13.8014 7.61419 13.8014 7.53562V6.46419C13.8014 6.38562 13.7361 6.32133 13.6563 6.32133Z" fill="black" fill-opacity="0.85"/>
</svg>
