<svg width="22" height="22" viewBox="0 0 22 22" fill="none" xmlns="http://www.w3.org/2000/svg">
<path d="M11.0001 21.2454C16.5951 21.2454 21.2455 16.6048 21.2455 10.9999C21.2455 5.40495 16.6049 0.754517 11.0099 0.754517C10.4776 0.754517 10.2166 1.07595 10.2166 1.59795V5.49537C10.2166 5.92737 10.5081 6.2788 10.9495 6.2788C11.3918 6.2788 11.6931 5.92737 11.6931 5.49537V2.49195C16.1129 2.84337 19.5278 6.49995 19.5278 10.9999C19.5324 12.1216 19.3151 13.2331 18.8883 14.2704C18.4615 15.3077 17.8337 16.2503 17.041 17.0439C16.2484 17.8375 15.3065 18.4665 14.2697 18.8945C13.233 19.3226 12.1217 19.5412 11.0001 19.5379C6.25878 19.5379 2.45221 15.7408 2.46207 10.9999C2.47192 8.89052 3.22535 6.97223 4.48107 5.49537C4.79221 5.10366 4.81235 4.6318 4.48107 4.27995C4.14935 3.91866 3.58707 3.94866 3.22535 4.4008C1.6885 6.18837 0.754639 8.4988 0.754639 10.9999C0.754639 16.6048 5.39521 21.2454 11.0001 21.2454ZM12.6072 12.5467C13.4005 11.7229 13.2402 10.5979 12.2858 9.93537L6.9715 6.22866C6.46964 5.87723 5.94721 6.39966 6.29864 6.90152L10.0054 12.2154C10.6684 13.1698 11.7934 13.3404 12.6072 12.5467Z" fill="black"/>
</svg>
